<svg id="visual" viewBox="0 0 1920 1080" width="1920" height="1080" xmlns="http://www.w3.org/2000/svg" xmlns:xlink="http://www.w3.org/1999/xlink" version="1.1"><rect x="0" y="0" width="1920" height="1080" fill="#001220"></rect><path d="M0 709L45.7 700.8C91.3 692.7 182.7 676.3 274.2 674.2C365.7 672 457.3 684 548.8 698.2C640.3 712.3 731.7 728.7 823 730.5C914.3 732.3 1005.7 719.7 1097 703.8C1188.3 688 1279.7 669 1371.2 657.8C1462.7 646.7 1554.3 643.3 1645.8 646.2C1737.3 649 1828.7 658 1874.3 662.5L1920 667L1920 1081L1874.3 1081C1828.7 1081 1737.3 1081 1645.8 1081C1554.3 1081 1462.7 1081 1371.2 1081C1279.7 1081 1188.3 1081 1097 1081C1005.7 1081 914.3 1081 823 1081C731.7 1081 640.3 1081 548.8 1081C457.3 1081 365.7 1081 274.2 1081C182.7 1081 91.3 1081 45.7 1081L0 1081Z" fill="#ff0000"></path><path d="M0 831L45.7 817.5C91.3 804 182.7 777 274.2 758C365.7 739 457.3 728 548.8 736.3C640.3 744.7 731.7 772.3 823 779.7C914.3 787 1005.7 774 1097 774C1188.3 774 1279.7 787 1371.2 801.2C1462.7 815.3 1554.3 830.7 1645.8 840.8C1737.3 851 1828.7 856 1874.3 858.5L1920 861L1920 1081L1874.3 1081C1828.7 1081 1737.3 1081 1645.8 1081C1554.3 1081 1462.7 1081 1371.2 1081C1279.7 1081 1188.3 1081 1097 1081C1005.7 1081 914.3 1081 823 1081C731.7 1081 640.3 1081 548.8 1081C457.3 1081 365.7 1081 274.2 1081C182.7 1081 91.3 1081 45.7 1081L0 1081Z" fill="#f85738"></path><path d="M0 885L45.7 883C91.3 881 182.7 877 274.2 870.5C365.7 864 457.3 855 548.8 842.5C640.3 830 731.7 814 823 822C914.3 830 1005.7 862 1097 873.7C1188.3 885.3 1279.7 876.7 1371.2 873.2C1462.7 869.7 1554.3 871.3 1645.8 869.8C1737.3 868.3 1828.7 863.7 1874.3 861.3L1920 859L1920 1081L1874.3 1081C1828.7 1081 1737.3 1081 1645.8 1081C1554.3 1081 1462.7 1081 1371.2 1081C1279.7 1081 1188.3 1081 1097 1081C1005.7 1081 914.3 1081 823 1081C731.7 1081 640.3 1081 548.8 1081C457.3 1081 365.7 1081 274.2 1081C182.7 1081 91.3 1081 45.7 1081L0 1081Z" fill="#ec7e63"></path><path d="M0 894L45.7 889.2C91.3 884.3 182.7 874.7 274.2 871.3C365.7 868 457.3 871 548.8 874.2C640.3 877.3 731.7 880.7 823 882.2C914.3 883.7 1005.7 883.3 1097 884.2C1188.3 885 1279.7 887 1371.2 885.8C1462.7 884.7 1554.3 880.3 1645.8 893C1737.3 905.7 1828.7 935.3 1874.3 950.2L1920 965L1920 1081L1874.3 1081C1828.7 1081 1737.3 1081 1645.8 1081C1554.3 1081 1462.7 1081 1371.2 1081C1279.7 1081 1188.3 1081 1097 1081C1005.7 1081 914.3 1081 823 1081C731.7 1081 640.3 1081 548.8 1081C457.3 1081 365.7 1081 274.2 1081C182.7 1081 91.3 1081 45.7 1081L0 1081Z" fill="#da9e8f"></path><path d="M0 997L45.7 995.7C91.3 994.3 182.7 991.7 274.2 995.7C365.7 999.7 457.3 1010.3 548.8 1004C640.3 997.7 731.7 974.3 823 962.7C914.3 951 1005.7 951 1097 960.2C1188.3 969.3 1279.7 987.7 1371.2 998.7C1462.7 1009.7 1554.3 1013.3 1645.8 1016.7C1737.3 1020 1828.7 1023 1874.3 1024.5L1920 1026L1920 1081L1874.3 1081C1828.7 1081 1737.3 1081 1645.8 1081C1554.3 1081 1462.7 1081 1371.2 1081C1279.7 1081 1188.3 1081 1097 1081C1005.7 1081 914.3 1081 823 1081C731.7 1081 640.3 1081 548.8 1081C457.3 1081 365.7 1081 274.2 1081C182.7 1081 91.3 1081 45.7 1081L0 1081Z" fill="#bcbcbc"></path></svg>