<svg id="visual" viewBox="0 0 1920 1080" width="1920" height="1080" xmlns="http://www.w3.org/2000/svg" xmlns:xlink="http://www.w3.org/1999/xlink" version="1.1"><rect x="0" y="0" width="1920" height="1080" fill="#701d1d"></rect><defs><linearGradient id="grad1_0" x1="43.8%" y1="0%" x2="100%" y2="100%"><stop offset="14.444444444444446%" stop-color="#e9b332" stop-opacity="1"></stop><stop offset="85.55555555555554%" stop-color="#e9b332" stop-opacity="1"></stop></linearGradient></defs><defs><linearGradient id="grad1_1" x1="43.8%" y1="0%" x2="100%" y2="100%"><stop offset="14.444444444444446%" stop-color="#e9b332" stop-opacity="1"></stop><stop offset="85.55555555555554%" stop-color="#db962c" stop-opacity="1"></stop></linearGradient></defs><defs><linearGradient id="grad1_2" x1="43.8%" y1="0%" x2="100%" y2="100%"><stop offset="14.444444444444446%" stop-color="#ca7b29" stop-opacity="1"></stop><stop offset="85.55555555555554%" stop-color="#db962c" stop-opacity="1"></stop></linearGradient></defs><defs><linearGradient id="grad1_3" x1="43.8%" y1="0%" x2="100%" y2="100%"><stop offset="14.444444444444446%" stop-color="#ca7b29" stop-opacity="1"></stop><stop offset="85.55555555555554%" stop-color="#b76127" stop-opacity="1"></stop></linearGradient></defs><defs><linearGradient id="grad1_4" x1="43.8%" y1="0%" x2="100%" y2="100%"><stop offset="14.444444444444446%" stop-color="#a14925" stop-opacity="1"></stop><stop offset="85.55555555555554%" stop-color="#b76127" stop-opacity="1"></stop></linearGradient></defs><defs><linearGradient id="grad1_5" x1="43.8%" y1="0%" x2="100%" y2="100%"><stop offset="14.444444444444446%" stop-color="#a14925" stop-opacity="1"></stop><stop offset="85.55555555555554%" stop-color="#893222" stop-opacity="1"></stop></linearGradient></defs><defs><linearGradient id="grad1_6" x1="43.8%" y1="0%" x2="100%" y2="100%"><stop offset="14.444444444444446%" stop-color="#701d1d" stop-opacity="1"></stop><stop offset="85.55555555555554%" stop-color="#893222" stop-opacity="1"></stop></linearGradient></defs><defs><linearGradient id="grad2_0" x1="0%" y1="0%" x2="56.3%" y2="100%"><stop offset="14.444444444444446%" stop-color="#e9b332" stop-opacity="1"></stop><stop offset="85.55555555555554%" stop-color="#e9b332" stop-opacity="1"></stop></linearGradient></defs><defs><linearGradient id="grad2_1" x1="0%" y1="0%" x2="56.3%" y2="100%"><stop offset="14.444444444444446%" stop-color="#db962c" stop-opacity="1"></stop><stop offset="85.55555555555554%" stop-color="#e9b332" stop-opacity="1"></stop></linearGradient></defs><defs><linearGradient id="grad2_2" x1="0%" y1="0%" x2="56.3%" y2="100%"><stop offset="14.444444444444446%" stop-color="#db962c" stop-opacity="1"></stop><stop offset="85.55555555555554%" stop-color="#ca7b29" stop-opacity="1"></stop></linearGradient></defs><defs><linearGradient id="grad2_3" x1="0%" y1="0%" x2="56.3%" y2="100%"><stop offset="14.444444444444446%" stop-color="#b76127" stop-opacity="1"></stop><stop offset="85.55555555555554%" stop-color="#ca7b29" stop-opacity="1"></stop></linearGradient></defs><defs><linearGradient id="grad2_4" x1="0%" y1="0%" x2="56.3%" y2="100%"><stop offset="14.444444444444446%" stop-color="#b76127" stop-opacity="1"></stop><stop offset="85.55555555555554%" stop-color="#a14925" stop-opacity="1"></stop></linearGradient></defs><defs><linearGradient id="grad2_5" x1="0%" y1="0%" x2="56.3%" y2="100%"><stop offset="14.444444444444446%" stop-color="#893222" stop-opacity="1"></stop><stop offset="85.55555555555554%" stop-color="#a14925" stop-opacity="1"></stop></linearGradient></defs><defs><linearGradient id="grad2_6" x1="0%" y1="0%" x2="56.3%" y2="100%"><stop offset="14.444444444444446%" stop-color="#893222" stop-opacity="1"></stop><stop offset="85.55555555555554%" stop-color="#701d1d" stop-opacity="1"></stop></linearGradient></defs><g transform="translate(1920, 0)"><path d="M0 864C-106.4 836.3 -212.9 808.6 -319.5 771.4C-426.2 734.2 -533 687.5 -610.9 610.9C-688.8 534.3 -737.8 427.9 -775.1 321.1C-812.5 214.3 -838.2 107.1 -864 0L0 0Z" fill="#7d2820"></path><path d="M0 740.6C-91.2 716.8 -182.5 693.1 -273.9 661.2C-365.3 629.4 -456.9 589.3 -523.7 523.7C-590.4 458 -632.4 366.7 -664.4 275.2C-696.4 183.7 -718.5 91.8 -740.6 0L0 0Z" fill="#953e23"></path><path d="M0 617.1C-76 597.4 -152.1 577.6 -228.2 551C-304.4 524.5 -380.7 491.1 -436.4 436.4C-492 381.7 -527 305.6 -553.7 229.3C-580.3 153 -598.7 76.5 -617.1 0L0 0Z" fill="#ac5526"></path><path d="M0 493.7C-60.8 477.9 -121.7 462.1 -182.6 440.8C-243.5 419.6 -304.6 392.9 -349.1 349.1C-393.6 305.3 -421.6 244.5 -442.9 183.5C-464.3 122.4 -479 61.2 -493.7 0L0 0Z" fill="#c16e28"></path><path d="M0 370.3C-45.6 358.4 -91.2 346.6 -136.9 330.6C-182.7 314.7 -228.4 294.7 -261.8 261.8C-295.2 229 -316.2 183.4 -332.2 137.6C-348.2 91.8 -359.2 45.9 -370.3 0L0 0Z" fill="#d3892b"></path><path d="M0 246.9C-30.4 238.9 -60.8 231 -91.3 220.4C-121.8 209.8 -152.3 196.4 -174.6 174.6C-196.8 152.7 -210.8 122.2 -221.5 91.7C-232.1 61.2 -239.5 30.6 -246.9 0L0 0Z" fill="#e3a52f"></path><path d="M0 123.4C-15.2 119.5 -30.4 115.5 -45.6 110.2C-60.9 104.9 -76.1 98.2 -87.3 87.3C-98.4 76.3 -105.4 61.1 -110.7 45.9C-116.1 30.6 -119.7 15.3 -123.4 0L0 0Z" fill="#e9b332"></path></g><g transform="translate(0, 1080)"><path d="M0 -864C96.4 -799.4 192.8 -734.8 284.7 -687.4C376.6 -639.9 464.1 -609.7 556.5 -556.5C648.9 -503.3 746.2 -427.2 798.2 -330.6C850.3 -234.1 857.2 -117 864 0L0 0Z" fill="#7d2820"></path><path d="M0 -740.6C82.6 -685.2 165.2 -629.8 244 -589.2C322.8 -548.5 397.8 -522.6 477 -477C556.2 -431.4 639.6 -366.2 684.2 -283.4C728.8 -200.6 734.7 -100.3 740.6 0L0 0Z" fill="#953e23"></path><path d="M0 -617.1C68.9 -571 137.7 -524.9 203.4 -491C269 -457.1 331.5 -435.5 397.5 -397.5C463.5 -359.5 533 -305.1 570.2 -236.2C607.4 -167.2 612.3 -83.6 617.1 0L0 0Z" fill="#ac5526"></path><path d="M0 -493.7C55.1 -456.8 110.2 -419.9 162.7 -392.8C215.2 -365.7 265.2 -348.4 318 -318C370.8 -287.6 426.4 -244.1 456.1 -188.9C485.9 -133.8 489.8 -66.9 493.7 0L0 0Z" fill="#c16e28"></path><path d="M0 -370.3C41.3 -342.6 82.6 -314.9 122 -294.6C161.4 -274.3 198.9 -261.3 238.5 -238.5C278.1 -215.7 319.8 -183.1 342.1 -141.7C364.4 -100.3 367.4 -50.2 370.3 0L0 0Z" fill="#d3892b"></path><path d="M0 -246.9C27.5 -228.4 55.1 -209.9 81.3 -196.4C107.6 -182.8 132.6 -174.2 159 -159C185.4 -143.8 213.2 -122.1 228.1 -94.5C242.9 -66.9 244.9 -33.4 246.9 0L0 0Z" fill="#e3a52f"></path><path d="M0 -123.4C13.8 -114.2 27.5 -105 40.7 -98.2C53.8 -91.4 66.3 -87.1 79.5 -79.5C92.7 -71.9 106.6 -61 114 -47.2C121.5 -33.4 122.5 -16.7 123.4 0L0 0Z" fill="#e9b332"></path></g></svg>