<svg id="visual" viewBox="0 0 1920 1080" width="1920" height="1080" xmlns="http://www.w3.org/2000/svg" xmlns:xlink="http://www.w3.org/1999/xlink" version="1.1"><g stroke-width="1" stroke-linejoin="bevel"><path d="M1065.7 530L1092.7 694L1275 576Z" fill="#f05a36" stroke="#f05a36"></path><path d="M1092.7 694L1275 710L1275 576Z" fill="#3e2c5a" stroke="#3e2c5a"></path><path d="M1470.3 543L1284 373L1275 576Z" fill="#84306b" stroke="#84306b"></path><path d="M1275 576L1284 373L1065.7 530Z" fill="#c6355e" stroke="#c6355e"></path><path d="M1284 373L1086.7 342L1065.7 530Z" fill="#202548" stroke="#202548"></path><path d="M1453.3 727L1470.3 543L1275 576Z" fill="#84306b" stroke="#84306b"></path><path d="M1278 931L1453.3 727L1275 710Z" fill="#202548" stroke="#202548"></path><path d="M1275 710L1453.3 727L1275 576Z" fill="#3e2c5a" stroke="#3e2c5a"></path><path d="M889.3 385L840.3 509L1065.7 530Z" fill="#df434d" stroke="#df434d"></path><path d="M1065.7 530L840.3 715L1092.7 694Z" fill="#602f66" stroke="#602f66"></path><path d="M840.3 509L840.3 715L1065.7 530Z" fill="#602f66" stroke="#602f66"></path><path d="M1092.7 694L1278 931L1275 710Z" fill="#84306b" stroke="#84306b"></path><path d="M1086.7 342L889.3 385L1065.7 530Z" fill="#00101c" stroke="#00101c"></path><path d="M1030.7 929L1278 931L1092.7 694Z" fill="#602f66" stroke="#602f66"></path><path d="M840.3 715L1030.7 929L1092.7 694Z" fill="#a73068" stroke="#a73068"></path><path d="M1494.3 326L1268 208L1284 373Z" fill="#f7770f" stroke="#f7770f"></path><path d="M1284 373L1268 208L1086.7 342Z" fill="#df434d" stroke="#df434d"></path><path d="M1086.7 342L1051.7 199L889.3 385Z" fill="#a73068" stroke="#a73068"></path><path d="M1268 208L1051.7 199L1086.7 342Z" fill="#00101c" stroke="#00101c"></path><path d="M840.3 715L835.3 879L1030.7 929Z" fill="#0b1c32" stroke="#0b1c32"></path><path d="M646 723L835.3 879L840.3 715Z" fill="#0b1c32" stroke="#0b1c32"></path><path d="M1696.7 347L1494.3 326L1470.3 543Z" fill="#00101c" stroke="#00101c"></path><path d="M1470.3 543L1494.3 326L1284 373Z" fill="#0b1c32" stroke="#0b1c32"></path><path d="M1278 931L1507.3 936L1453.3 727Z" fill="#f05a36" stroke="#f05a36"></path><path d="M1453.3 727L1678.7 574L1470.3 543Z" fill="#202548" stroke="#202548"></path><path d="M1312 1080L1507.3 936L1278 931Z" fill="#df434d" stroke="#df434d"></path><path d="M818.3 1080L1103.7 1080L1030.7 929Z" fill="#f05a36" stroke="#f05a36"></path><path d="M1030.7 929L1103.7 1080L1278 931Z" fill="#84306b" stroke="#84306b"></path><path d="M1103.7 1080L1312 1080L1278 931Z" fill="#df434d" stroke="#df434d"></path><path d="M1051.7 199L825.3 213L889.3 385Z" fill="#c6355e" stroke="#c6355e"></path><path d="M626 397L650 535L840.3 509Z" fill="#0b1c32" stroke="#0b1c32"></path><path d="M840.3 509L650 535L840.3 715Z" fill="#00101c" stroke="#00101c"></path><path d="M626 397L840.3 509L889.3 385Z" fill="#a73068" stroke="#a73068"></path><path d="M1721.7 732L1678.7 574L1453.3 727Z" fill="#0b1c32" stroke="#0b1c32"></path><path d="M650 535L646 723L840.3 715Z" fill="#c6355e" stroke="#c6355e"></path><path d="M1696.7 347L1508.3 146L1494.3 326Z" fill="#c6355e" stroke="#c6355e"></path><path d="M1494.3 326L1508.3 146L1268 208Z" fill="#3e2c5a" stroke="#3e2c5a"></path><path d="M1268 208L1096.7 0L1051.7 199Z" fill="#0b1c32" stroke="#0b1c32"></path><path d="M1051.7 199L865.3 0L825.3 213Z" fill="#0b1c32" stroke="#0b1c32"></path><path d="M825.3 213L626 397L889.3 385Z" fill="#a73068" stroke="#a73068"></path><path d="M650 535L443.7 733L646 723Z" fill="#0b1c32" stroke="#0b1c32"></path><path d="M1312 1080L1478.3 1080L1507.3 936Z" fill="#84306b" stroke="#84306b"></path><path d="M1681.7 888L1721.7 732L1453.3 727Z" fill="#a73068" stroke="#a73068"></path><path d="M1681.7 888L1453.3 727L1507.3 936Z" fill="#f7770f" stroke="#f7770f"></path><path d="M646 723L674 914L835.3 879Z" fill="#df434d" stroke="#df434d"></path><path d="M835.3 879L818.3 1080L1030.7 929Z" fill="#0b1c32" stroke="#0b1c32"></path><path d="M674 914L818.3 1080L835.3 879Z" fill="#df434d" stroke="#df434d"></path><path d="M1678.7 574L1696.7 347L1470.3 543Z" fill="#0b1c32" stroke="#0b1c32"></path><path d="M1920 542L1696.7 347L1678.7 574Z" fill="#c6355e" stroke="#c6355e"></path><path d="M1701.7 1080L1681.7 888L1507.3 936Z" fill="#202548" stroke="#202548"></path><path d="M1260 0L1096.7 0L1268 208Z" fill="#f7770f" stroke="#f7770f"></path><path d="M1508.3 146L1260 0L1268 208Z" fill="#602f66" stroke="#602f66"></path><path d="M865.3 0L670 192L825.3 213Z" fill="#df434d" stroke="#df434d"></path><path d="M825.3 213L670 192L626 397Z" fill="#f05a36" stroke="#f05a36"></path><path d="M1096.7 0L865.3 0L1051.7 199Z" fill="#f05a36" stroke="#f05a36"></path><path d="M1694.7 0L1486.3 0L1508.3 146Z" fill="#c6355e" stroke="#c6355e"></path><path d="M1508.3 146L1486.3 0L1260 0Z" fill="#602f66" stroke="#602f66"></path><path d="M674 914L669 1080L818.3 1080Z" fill="#f7770f" stroke="#f7770f"></path><path d="M449.7 1080L669 1080L674 914Z" fill="#84306b" stroke="#84306b"></path><path d="M1920 320L1740.7 219L1696.7 347Z" fill="#84306b" stroke="#84306b"></path><path d="M1696.7 347L1740.7 219L1508.3 146Z" fill="#202548" stroke="#202548"></path><path d="M1478.3 1080L1701.7 1080L1507.3 936Z" fill="#00101c" stroke="#00101c"></path><path d="M1920 740L1920 542L1721.7 732Z" fill="#602f66" stroke="#602f66"></path><path d="M408.7 521L443.7 733L650 535Z" fill="#a73068" stroke="#a73068"></path><path d="M646 723L425.7 876L674 914Z" fill="#c6355e" stroke="#c6355e"></path><path d="M408.7 521L650 535L626 397Z" fill="#df434d" stroke="#df434d"></path><path d="M403.7 333L408.7 521L626 397Z" fill="#202548" stroke="#202548"></path><path d="M1920 740L1721.7 732L1920 889Z" fill="#c6355e" stroke="#c6355e"></path><path d="M1721.7 732L1920 542L1678.7 574Z" fill="#3e2c5a" stroke="#3e2c5a"></path><path d="M1920 889L1721.7 732L1681.7 888Z" fill="#202548" stroke="#202548"></path><path d="M247.3 730L425.7 876L443.7 733Z" fill="#3e2c5a" stroke="#3e2c5a"></path><path d="M443.7 733L425.7 876L646 723Z" fill="#202548" stroke="#202548"></path><path d="M670 192L403.7 333L626 397Z" fill="#602f66" stroke="#602f66"></path><path d="M404.7 166L403.7 333L670 192Z" fill="#00101c" stroke="#00101c"></path><path d="M1920 0L1694.7 0L1740.7 219Z" fill="#84306b" stroke="#84306b"></path><path d="M1740.7 219L1694.7 0L1508.3 146Z" fill="#df434d" stroke="#df434d"></path><path d="M865.3 0L620 0L670 192Z" fill="#0b1c32" stroke="#0b1c32"></path><path d="M1920 542L1920 320L1696.7 347Z" fill="#f05a36" stroke="#f05a36"></path><path d="M1701.7 1080L1920 889L1681.7 888Z" fill="#0b1c32" stroke="#0b1c32"></path><path d="M1920 320L1920 219L1740.7 219Z" fill="#00101c" stroke="#00101c"></path><path d="M425.7 876L449.7 1080L674 914Z" fill="#202548" stroke="#202548"></path><path d="M620 0L404.7 166L670 192Z" fill="#df434d" stroke="#df434d"></path><path d="M1701.7 1080L1920 1080L1920 889Z" fill="#0b1c32" stroke="#0b1c32"></path><path d="M408.7 521L247.3 730L443.7 733Z" fill="#84306b" stroke="#84306b"></path><path d="M425.7 876L210.3 1080L449.7 1080Z" fill="#00101c" stroke="#00101c"></path><path d="M191.3 531L247.3 730L408.7 521Z" fill="#c6355e" stroke="#c6355e"></path><path d="M191.3 531L408.7 521L186.3 376Z" fill="#602f66" stroke="#602f66"></path><path d="M620 0L425.7 0L404.7 166Z" fill="#202548" stroke="#202548"></path><path d="M186.3 376L408.7 521L403.7 333Z" fill="#f7770f" stroke="#f7770f"></path><path d="M1920 219L1920 0L1740.7 219Z" fill="#602f66" stroke="#602f66"></path><path d="M186.3 376L403.7 333L233.3 203Z" fill="#c6355e" stroke="#c6355e"></path><path d="M0 683L204.3 866L247.3 730Z" fill="#602f66" stroke="#602f66"></path><path d="M247.3 730L204.3 866L425.7 876Z" fill="#3e2c5a" stroke="#3e2c5a"></path><path d="M233.3 203L403.7 333L404.7 166Z" fill="#f05a36" stroke="#f05a36"></path><path d="M192.3 0L233.3 203L404.7 166Z" fill="#602f66" stroke="#602f66"></path><path d="M0 1080L210.3 1080L204.3 866Z" fill="#0b1c32" stroke="#0b1c32"></path><path d="M204.3 866L210.3 1080L425.7 876Z" fill="#c6355e" stroke="#c6355e"></path><path d="M425.7 0L192.3 0L404.7 166Z" fill="#df434d" stroke="#df434d"></path><path d="M0 366L191.3 531L186.3 376Z" fill="#3e2c5a" stroke="#3e2c5a"></path><path d="M0 366L186.3 376L0 195Z" fill="#602f66" stroke="#602f66"></path><path d="M0 366L0 551L191.3 531Z" fill="#c6355e" stroke="#c6355e"></path><path d="M191.3 531L0 683L247.3 730Z" fill="#f7770f" stroke="#f7770f"></path><path d="M0 551L0 683L191.3 531Z" fill="#0b1c32" stroke="#0b1c32"></path><path d="M0 195L186.3 376L233.3 203Z" fill="#202548" stroke="#202548"></path><path d="M0 683L0 861L204.3 866Z" fill="#00101c" stroke="#00101c"></path><path d="M192.3 0L0 195L233.3 203Z" fill="#df434d" stroke="#df434d"></path><path d="M0 861L0 1080L204.3 866Z" fill="#202548" stroke="#202548"></path><path d="M192.3 0L0 0L0 195Z" fill="#602f66" stroke="#602f66"></path></g></svg>